<svg xmlns="http://www.w3.org/2000/svg" width="1280" height="720" viewBox="0 0 1280 720">
<rect width="1280" height="720" rx="16" fill="#151311"/>
<g>
  <circle cx="30" cy="22" r="7" fill="#ff5f57"/>
  <circle cx="54" cy="22" r="7" fill="#febc2e"/>
  <circle cx="78" cy="22" r="7" fill="#28c840"/>
  <rect x="460" y="9" width="360" height="26" rx="13" fill="#211d1a"/>
  <rect x="478" y="17" width="10" height="8" rx="2" fill="#6b6559"/>
  <path d="M476 20v-3a4 4 0 0 1 8 0v3" fill="none" stroke="#6b6559" stroke-width="2"/>
  <text x="498" y="26" font-family="Consolas, Menlo, monospace" font-size="12" fill="#8a8378">unity-build · dev</text>
</g>
<line x1="0" y1="44" x2="1280" y2="44" stroke="#211d1a" stroke-width="2"/>

<defs>
  <linearGradient id="sky" x1="0" y1="0" x2="0" y2="1">
    <stop offset="0" stop-color="#2a4a6b"/>
    <stop offset="0.7" stop-color="#d97951"/>
  </linearGradient>
</defs>
<rect width="1280" height="676" y="44" fill="url(#sky)"/>
<circle cx="360" cy="150" r="44" fill="#ffe9a8"/>
<g fill="#ffffff" opacity="0.85">
  <rect x="560" y="120" width="120" height="24" rx="12"/>
  <rect x="700" y="170" width="90" height="20" rx="10"/>
  <rect x="500" y="210" width="70" height="16" rx="8"/>
</g>
<g>
  <rect x="0" y="560" width="1280" height="160" fill="#7a5c3e"/>
  <rect x="0" y="540" width="1280" height="34" fill="#4d6b3a"/>
  <rect x="0" y="574" width="1280" height="8" fill="#5d8a48"/>
  <rect x="20" y="470" width="60" height="80" rx="4" fill="#3d5c30" opacity="0.9"/><rect x="130" y="492" width="70" height="58" rx="4" fill="#3d5c30" opacity="0.9"/><rect x="240" y="514" width="80" height="36" rx="4" fill="#3d5c30" opacity="0.9"/><rect x="350" y="470" width="90" height="80" rx="4" fill="#3d5c30" opacity="0.9"/><rect x="460" y="492" width="60" height="58" rx="4" fill="#3d5c30" opacity="0.9"/><rect x="570" y="514" width="70" height="36" rx="4" fill="#3d5c30" opacity="0.9"/><rect x="680" y="470" width="80" height="80" rx="4" fill="#3d5c30" opacity="0.9"/><rect x="790" y="492" width="90" height="58" rx="4" fill="#3d5c30" opacity="0.9"/><rect x="900" y="514" width="60" height="36" rx="4" fill="#3d5c30" opacity="0.9"/><rect x="1010" y="470" width="70" height="80" rx="4" fill="#3d5c30" opacity="0.9"/><rect x="1120" y="492" width="80" height="58" rx="4" fill="#3d5c30" opacity="0.9"/><rect x="1230" y="514" width="90" height="36" rx="4" fill="#3d5c30" opacity="0.9"/>
  <rect x="360" y="486" width="96" height="54" rx="5" fill="#6e5642"/>
  <rect x="448" y="508" width="72" height="32" rx="5" fill="#6e5642"/>
</g>
<g>
  <rect x="820" y="452" width="40" height="108" rx="6" fill="#2a2520"/>
  <rect x="806" y="560" width="68" height="6" fill="#3b342d"/>
  <rect x="862" y="560" width="68" height="6" fill="#3b342d"/>
  <rect x="928" y="500" width="180" height="6" rx="3" fill="#3b342d"/>
</g>
<text x="1040" y="610" font-family="Consolas, Menlo, monospace" font-size="20" fill="#ffe9a8" font-weight="400" style="font-weight:700">✦ dig · build · explore</text>

</svg>